<svg width="170" height="190" viewBox="0 0 170 190" fill="none" xmlns="http://www.w3.org/2000/svg">
<path d="M94.5137 0H115.515L105.014 105.003L94.5137 0Z" fill="#C2DF93" fill-opacity="0.1"/>
<path d="M94.5137 210.007H115.515L105.014 105.004L94.5137 210.007Z" fill="#C2DF93" fill-opacity="0.1"/>
<path d="M148.417 8.81464L166.604 19.3149L105.008 105L148.417 8.81464Z" fill="#C2DF93" fill-opacity="0.1"/>
<path d="M43.4023 190.688L61.5896 201.189L104.998 105.003L43.4023 190.688Z" fill="#C2DF93" fill-opacity="0.1"/>
<path d="M190.682 43.4041L201.182 61.5912L104.995 104.999L190.682 43.4041Z" fill="#C2DF93" fill-opacity="0.1"/>
<path d="M8.81836 148.408L19.3188 166.595L105.005 105L8.81836 148.408Z" fill="#C2DF93" fill-opacity="0.1"/>
<path d="M210 94.5033V115.504L104.996 105.004L210 94.5033Z" fill="#C2DF93" fill-opacity="0.1"/>
<path d="M0 94.5033L0 115.504L105.004 105.004L0 94.5033Z" fill="#C2DF93" fill-opacity="0.1"/>
<path d="M199.616 151.743L188.487 169.552L105.003 105.004L199.616 151.743Z" fill="#C2DF93" fill-opacity="0.1"/>
<path d="M21.5264 40.4594L10.3976 58.2689L105.011 105.007L21.5264 40.4594Z" fill="#C2DF93" fill-opacity="0.1"/>
<path d="M162.045 193.798L143.333 203.332L105.018 105.006L162.045 193.798Z" fill="#C2DF93" fill-opacity="0.1"/>
<path d="M66.6768 6.67761L47.9649 16.2117L104.992 105.003L66.6768 6.67761Z" fill="#C2DF93" fill-opacity="0.1"/>
</svg>
