<svg width="159" height="40" viewBox="0 0 159 40" fill="none" xmlns="http://www.w3.org/2000/svg">
<path d="M13.5488 18.7453C13.5488 22.3022 16.4425 25.1958 19.9992 25.1958C23.556 25.1958 26.4496 22.3022 26.4496 18.7453C26.4496 15.1886 23.556 12.2949 19.9992 12.2949C16.4425 12.2949 13.5488 15.1885 13.5488 18.7453Z" fill="white"/>
<path d="M30.0002 1.42657C29.3975 1.07768 28.6247 1.28381 28.2762 1.88755L24.2473 8.86617C23.8993 9.46896 24.1054 10.2399 24.708 10.5885C27.6121 12.2688 29.4162 15.3942 29.4164 18.7448C29.4164 19.4414 29.9811 20.006 30.6776 20.006H38.7385C39.435 20.006 39.9997 19.4414 39.9997 18.7448C40.0004 11.5953 36.1961 5.01256 30.0002 1.42657Z" fill="white"/>
<path d="M10.5833 18.7448C10.5835 15.3939 12.3879 12.2684 15.2923 10.5881C15.8949 10.2395 16.1011 9.46863 15.753 8.86576L11.724 1.88753C11.3757 1.28419 10.6032 1.07751 9.99998 1.42655C3.81349 5.00711 0 11.5853 0 18.7447C0 19.4413 0.564716 20.006 1.26123 20.006H9.32207C10.0186 20.006 10.5832 19.4413 10.5833 18.7448Z" fill="white"/>
<path d="M26.4323 27.3632C26.084 26.7598 25.3116 26.5531 24.7084 26.902C21.8077 28.5804 18.1966 28.5827 15.2921 26.9021C14.6903 26.5538 13.9173 26.7583 13.5681 27.3632L9.54024 34.3407C9.19222 34.9435 9.39843 35.7143 10.0009 36.0629C16.175 39.6351 23.8156 39.6401 29.9998 36.063C30.6026 35.7144 30.8088 34.9436 30.4607 34.3406L26.4323 27.3632Z" fill="white"/>
<path d="M62.0227 31.5V8.22727H77.7045V12.2841H66.9432V17.8295H76.8977V21.8864H66.9432V27.4432H77.75V31.5H62.0227ZM86.3665 21.4091V31.5H81.5256V14.0455H86.1392V17.125H86.3438C86.7301 16.1098 87.3778 15.3068 88.2869 14.7159C89.196 14.1174 90.2983 13.8182 91.5938 13.8182C92.8059 13.8182 93.8627 14.0833 94.7642 14.6136C95.6657 15.1439 96.3665 15.9015 96.8665 16.8864C97.3665 17.8636 97.6165 19.0303 97.6165 20.3864V31.5H92.7756V21.25C92.7831 20.1818 92.5104 19.3485 91.9574 18.75C91.4044 18.1439 90.643 17.8409 89.6733 17.8409C89.0218 17.8409 88.446 17.9811 87.946 18.2614C87.4536 18.5417 87.0672 18.9508 86.7869 19.4886C86.5142 20.0189 86.3741 20.6591 86.3665 21.4091ZM117.08 14.0455L110.977 31.5H105.523L99.4205 14.0455H104.534L108.159 26.5341H108.341L111.955 14.0455H117.08ZM119.557 31.5V14.0455H124.398V31.5H119.557ZM121.989 11.7955C121.269 11.7955 120.652 11.5568 120.136 11.0795C119.629 10.5947 119.375 10.0152 119.375 9.34091C119.375 8.67424 119.629 8.10227 120.136 7.625C120.652 7.14015 121.269 6.89773 121.989 6.89773C122.708 6.89773 123.322 7.14015 123.83 7.625C124.345 8.10227 124.602 8.67424 124.602 9.34091C124.602 10.0152 124.345 10.5947 123.83 11.0795C123.322 11.5568 122.708 11.7955 121.989 11.7955ZM128.276 31.5V14.0455H132.969V17.0909H133.151C133.469 16.0076 134.003 15.1894 134.753 14.6364C135.503 14.0758 136.366 13.7955 137.344 13.7955C137.586 13.7955 137.848 13.8106 138.128 13.8409C138.408 13.8712 138.654 13.9129 138.866 13.9659V18.2614C138.639 18.1932 138.325 18.1326 137.923 18.0795C137.522 18.0265 137.154 18 136.821 18C136.109 18 135.473 18.1553 134.912 18.4659C134.359 18.7689 133.92 19.1932 133.594 19.7386C133.276 20.2841 133.116 20.9129 133.116 21.625V31.5H128.276ZM148.443 31.8409C146.678 31.8409 145.152 31.4659 143.864 30.7159C142.583 29.9583 141.595 28.9053 140.898 27.5568C140.201 26.2008 139.852 24.6288 139.852 22.8409C139.852 21.0379 140.201 19.4621 140.898 18.1136C141.595 16.7576 142.583 15.7045 143.864 14.9545C145.152 14.197 146.678 13.8182 148.443 13.8182C150.208 13.8182 151.731 14.197 153.011 14.9545C154.299 15.7045 155.292 16.7576 155.989 18.1136C156.686 19.4621 157.034 21.0379 157.034 22.8409C157.034 24.6288 156.686 26.2008 155.989 27.5568C155.292 28.9053 154.299 29.9583 153.011 30.7159C151.731 31.4659 150.208 31.8409 148.443 31.8409ZM148.466 28.0909C149.269 28.0909 149.939 27.8636 150.477 27.4091C151.015 26.947 151.42 26.3182 151.693 25.5227C151.973 24.7273 152.114 23.822 152.114 22.8068C152.114 21.7917 151.973 20.8864 151.693 20.0909C151.42 19.2955 151.015 18.6667 150.477 18.2045C149.939 17.7424 149.269 17.5114 148.466 17.5114C147.655 17.5114 146.973 17.7424 146.42 18.2045C145.875 18.6667 145.462 19.2955 145.182 20.0909C144.909 20.8864 144.773 21.7917 144.773 22.8068C144.773 23.822 144.909 24.7273 145.182 25.5227C145.462 26.3182 145.875 26.947 146.42 27.4091C146.973 27.8636 147.655 28.0909 148.466 28.0909Z" fill="white"/>
</svg>
