<svg width="199" height="40" viewBox="0 0 199 40" fill="none" xmlns="http://www.w3.org/2000/svg">
<g clip-path="url(#clip0_1_5260)">
<path d="M156.498 10.4573H165.321L173.533 24.6222L181.772 10.4573H190.595V29.0604H186.449V10.6433L175.739 29.0604H171.354L160.617 10.6433V29.0604H156.498V10.4573Z" fill="#063232"/>
<path d="M129.921 21.8317C126.785 21.8317 124.261 19.307 124.261 16.1445C124.261 13.0086 126.785 10.4573 129.921 10.4573H153.972V14.6031H129.921C129.071 14.6031 128.38 15.2941 128.38 16.1445C128.38 17.0215 129.071 17.7125 129.921 17.7125H148.285C151.421 17.7125 153.972 20.2372 153.972 23.3997C153.972 26.5357 151.421 29.0604 148.285 29.0604H124.261V24.9411H148.285C149.136 24.9411 149.827 24.2501 149.827 23.3997C149.827 22.5227 149.136 21.8317 148.285 21.8317H129.921Z" fill="#063232"/>
<path d="M114.857 10.4573C118.843 10.4573 122.086 13.6995 122.086 17.7125C122.086 21.6989 118.843 24.9411 114.857 24.9411H96.2538V29.0604H92.1348V10.4573H114.857ZM114.83 20.7953C116.558 20.7953 117.94 19.4133 117.94 17.7125C117.94 15.9851 116.558 14.6031 114.83 14.6031H96.2538V20.7953H114.83Z" fill="#063232"/>
<path d="M69.9749 14.6031C67.1049 14.6031 64.7929 16.9152 64.7929 19.7588C64.7929 22.629 67.1049 24.9411 69.9749 24.9411H85.3359V21.6989H69.5759V17.5796H89.4818V29.0604H69.9749C64.8189 29.0604 60.6729 24.9145 60.6729 19.7588C60.6729 14.6297 64.8189 10.4573 69.9749 10.4573H89.4818V14.6031H69.9749Z" fill="#063232"/>
<path d="M34 29.0604V10.4573H38.1193V24.9411H58.9281V29.0604H34Z" fill="#063232"/>
<path d="M198.311 9.41768C198.311 10.7529 197.228 11.8354 195.893 11.8354C194.558 11.8354 193.475 10.7529 193.475 9.41768C193.475 8.08243 194.558 7 195.893 7C197.228 7 198.311 8.08243 198.311 9.41768Z" fill="#063232"/>
<path d="M-8 10H2C7.5228 10 12 14.4772 12 20C12 25.5228 7.5228 30 2 30H-4V28H2C6.4183 28 10 24.4183 10 20C10 15.5817 6.4183 12 2 12H-8V22H2C3.1046 22 4 21.1046 4 20C4 18.8954 3.1046 18 2 18H-4V16H2C4.2091 16 6 17.7909 6 20C6 22.2091 4.2091 24 2 24H-8V34H2C9.732 34 16 27.732 16 20C16 12.268 9.732 6 2 6H-4V4H2C10.8366 4 18 11.1634 18 20C18 28.8366 10.8366 36 2 36H-8V40H2C13.0457 40 22 31.0457 22 20C22 8.95431 13.0457 0 2 0H-8V10Z" fill="#063232"/>
</g>
<defs>
<clipPath id="clip0_1_5260">
<rect width="239" height="40" fill="white" transform="translate(-40)"/>
</clipPath>
</defs>
</svg>
