<svg width="198" height="40" viewBox="0 0 198 40" fill="none" xmlns="http://www.w3.org/2000/svg">
<g clip-path="url(#clip0_1_5306)">
<path d="M96.8544 4.00158C96.5315 6.29416 98.0201 8.00317 100.34 8.00317C102.66 8.00317 104.63 6.29416 104.953 4.00158C105.276 1.70901 103.787 0 101.467 0C99.1471 0 97.1772 1.70901 96.8544 4.00158Z" fill="#063232"/>
<path d="M96.9133 9.87892L94.9238 24.0073L101.284 23.764L103.239 9.87892H96.9133Z" fill="#063232"/>
<path fill-rule="evenodd" clip-rule="evenodd" d="M80.2062 31.0125C85.2238 31.0125 89.4886 28.3459 91.6211 24.3067L94.8623 24.439L94.013 30.4704H100.34L101.153 24.6957L104.507 24.8326L102.474 39.2658H108.801L110.356 28.2198C111.405 30.0538 113.379 31.0125 115.868 31.0125C119.232 31.0125 123.182 29.2789 125.543 25.6911L127.966 25.79C128.379 28.907 131.289 31.0125 135.906 31.0125C141.262 31.0125 145.204 28.1781 145.803 23.9264C146.49 19.0495 142.004 18.2575 139.068 17.8407L138.812 17.8016C137.037 17.5315 135.682 17.3254 135.85 16.1316C135.968 15.298 136.712 14.506 138.272 14.506C139.538 14.506 140.305 15.0479 140.339 16.0066H146.496C146.892 12.2968 144.104 9.3373 138.916 9.3373C133.728 9.3373 129.985 12.2551 129.398 16.4234C128.7 21.3837 133.324 22.0923 136.133 22.5092L136.288 22.5327L136.504 22.5652L136.506 22.5655C138.224 22.8231 139.52 23.0174 139.339 24.3016C139.216 25.1769 138.489 25.8438 136.549 25.8438C134.82 25.8438 134.095 25.302 134.205 24.2182L89.4306 24.2173L91.7126 24.1301C92.327 22.9196 92.7519 21.59 92.9512 20.1749C93.8316 13.9224 89.8379 9.3373 83.2585 9.3373C83.1565 9.3373 83.0549 9.3384 82.9535 9.34059L82.9737 9.32711L63.0291 9.32713C62.7433 9.32521 62.472 9.3252 62.2178 9.32713H63.0291C68.1508 9.36159 77.9114 10.0099 76.6557 11.0661C73.3764 12.951 71.0688 16.2313 70.5135 20.1749C69.633 26.4274 73.6267 31.0125 80.2062 31.0125ZM81.0279 25.1769C83.8959 25.1769 86.1236 23.1344 86.5404 20.1749C86.9572 17.2154 85.3047 15.1729 82.4367 15.1729C79.5687 15.1729 77.341 17.2154 76.9242 20.1749C76.5075 23.1344 78.16 25.1769 81.0279 25.1769Z" fill="#063232"/>
<path d="M121.105 20.1749C120.95 21.2812 120.541 22.2593 119.94 23.0505L126.938 22.7828C127.179 22.0476 127.363 21.2619 127.481 20.425C128.414 13.7974 124.403 9.3373 117.781 9.3373C111.413 9.3373 106.108 13.4639 105.133 20.3833L104.676 23.6343L112.007 23.3539C111.507 22.5152 111.313 21.4272 111.489 20.1749C111.906 17.2154 114.134 15.1729 117.002 15.1729C119.87 15.1729 121.522 17.2154 121.105 20.1749Z" fill="#063232"/>
<path d="M170.456 27.306L171.642 18.8827C172.576 12.2551 176.867 9.3373 181.928 9.3373C184.88 9.3373 187.21 10.4627 188.465 12.6303C190.331 10.4627 192.936 9.3373 195.93 9.3373C200.992 9.3373 204.461 12.2551 203.528 18.8827L201.896 30.4707H195.569L197.201 18.8827C197.589 16.1316 196.374 15.1729 194.476 15.1729C192.62 15.1729 191.136 16.1316 190.748 18.8827L189.116 30.4707H182.79L184.422 18.8827C184.809 16.1316 183.595 15.1729 181.739 15.1729C179.841 15.1729 178.356 16.1316 177.969 18.8827L176.337 30.4707H172.546L172.547 30.4731H163.683C167.361 30.1011 170.187 29.0964 170.45 27.2971L170.456 27.306Z" fill="#063232"/>
<path d="M156.959 31.0123C150.801 31.0123 147.161 27.5109 148.141 20.5498L149.249 12.6856C149.426 10.6542 147.823 10.4004 144.287 9.89142H149.642L149.644 9.87891H155.971L154.468 20.5498C154.01 23.8011 155.419 25.1766 157.781 25.1766C160.143 25.1766 161.939 23.8011 162.397 20.5498L163.9 9.87891H170.226L168.723 20.5498C167.749 27.4692 163.117 31.0123 156.959 31.0123Z" fill="#063232"/>
<path d="M49.2178 28.0335C48.7707 27.5452 48.3847 27.0051 48.0648 26.4191L43.5479 26.1736C41.2116 29.1472 37.5416 31.0125 33.345 31.0125C26.7655 31.0125 22.7718 26.4274 23.6523 20.1749C24.5328 13.9224 29.8178 9.3373 36.3973 9.3373C42.9768 9.3373 46.9705 13.9224 46.09 20.1749C45.8887 21.6041 45.4573 22.9462 44.833 24.1663L36.6957 24.5808C38.2801 23.7686 39.3965 22.1828 39.6792 20.1749C40.096 17.2154 38.4435 15.1729 35.5755 15.1729C32.7076 15.1729 30.4798 17.2154 30.0631 20.1749C29.7511 22.3903 30.5987 24.0919 32.2476 24.8074L25.1077 25.1712H57.7535V25.1749C60.5461 25.1023 62.701 23.0806 63.1102 20.1749C63.5269 17.2154 61.8744 15.1729 59.0064 15.1729C56.1385 15.1729 53.9108 17.2154 53.494 20.1749C53.2933 21.6003 53.5726 22.813 54.2365 23.6872L47.1893 24.0462C46.9322 22.8583 46.8886 21.5574 47.0832 20.1749C47.9637 13.9224 53.2487 9.3373 59.8282 9.3373C66.4077 9.3373 70.4014 13.9224 69.5209 20.1749C68.6704 26.2145 63.7102 30.6984 57.4434 30.9967C58.9193 31.8258 61.063 32.4963 62.6387 32.989C63.1644 33.1535 63.6269 33.2981 63.9802 33.4222C65.4112 33.7752 66.3256 35.093 66.1043 36.6647C65.8449 38.5067 64.1237 40 62.2599 40H52.1356C48.8262 40 46.4046 37.6461 46.2659 34.5399L33.7786 33.3309H46.3253L46.3255 33.3294H57.1218C54.6532 32.3859 52.0447 30.4983 50.3676 29.074C49.9495 28.7608 49.566 28.4135 49.2192 28.035L49.2178 28.0335Z" fill="#063232"/>
<path d="M0 3.20975L5.1678 4.03055L1.44456 30.4705H21.3095L22.19 24.218H9.15756L12.1159 3.20969L0 3.20975Z" fill="#063232"/>
</g>
<defs>
<clipPath id="clip0_1_5306">
<rect width="209" height="40" fill="white"/>
</clipPath>
</defs>
</svg>
