<svg width="18" height="16" viewBox="0 0 18 16" fill="none" xmlns="http://www.w3.org/2000/svg">
<g clip-path="url(#clip0_113_1232)">
<path d="M9.75004 7.99996C9.75004 8.1598 9.68895 8.3198 9.56691 8.44184L3.31691 14.6918C3.0727 14.9361 2.67723 14.9361 2.43316 14.6918C2.1891 14.4476 2.18895 14.0521 2.43316 13.8081L8.24129 7.99996L2.43316 2.19184C2.18895 1.94762 2.18895 1.55215 2.43316 1.30809C2.67738 1.06402 3.07285 1.06387 3.31691 1.30809L9.56691 7.55809C9.68895 7.68012 9.75004 7.84012 9.75004 7.99996Z" fill="#063232"/>
</g>
<g clip-path="url(#clip1_113_1232)">
<path d="M15.75 7.99996C15.75 8.1598 15.6889 8.3198 15.5669 8.44184L9.31691 14.6918C9.0727 14.9361 8.67723 14.9361 8.43316 14.6918C8.1891 14.4476 8.18895 14.0521 8.43316 13.8081L14.2413 7.99996L8.43316 2.19184C8.18895 1.94762 8.18895 1.55215 8.43316 1.30809C8.67738 1.06402 9.07285 1.06387 9.31691 1.30809L15.5669 7.55809C15.6889 7.68012 15.75 7.84012 15.75 7.99996Z" fill="#063232"/>
</g>
<defs>
<clipPath id="clip0_113_1232">
<rect width="16" height="12" fill="white" transform="matrix(0 -1 1 0 0 16)"/>
</clipPath>
<clipPath id="clip1_113_1232">
<rect width="16" height="12" fill="white" transform="matrix(0 -1 1 0 6 16)"/>
</clipPath>
</defs>
</svg>
