<svg width="35" height="35" viewBox="0 0 35 35" fill="none" xmlns="http://www.w3.org/2000/svg">
<path d="M28.1836 21.9357C26.5185 19.5568 23.7938 18.8706 21.6768 20.3501L19.7645 21.6929C18.7188 20.5633 17.7536 19.3627 16.8299 18.0444C15.9082 16.7292 15.1106 15.412 14.4064 14.0395L16.3208 12.7C18.4515 11.2067 18.7538 8.46923 17.0558 6.04575L14.8497 2.89044C13.1824 0.512564 10.4545 -0.171526 8.34606 1.30802L5.44531 3.33908C3.67622 4.57787 3.08122 7.49135 3.81516 11.3318C4.54485 15.15 6.46773 19.4232 9.22849 23.3665C13.8061 29.903 20.0053 34.4689 24.3082 34.4689C25.2712 34.4689 26.0942 34.2335 26.7529 33.7721L29.6526 31.741C30.7609 30.9679 31.4111 29.8351 31.4864 28.555C31.5542 27.4063 31.1756 26.2079 30.3908 25.0868L28.1836 21.9357ZM28.5071 30.1045L25.6074 32.1345C25.2903 32.3583 24.8533 32.4707 24.3082 32.4707C21.2717 32.4707 15.5253 28.8785 10.865 22.221C8.26228 18.5036 6.455 14.503 5.77728 10.9564C5.21516 8.01317 5.52697 5.72014 6.59076 4.97453L9.49152 2.94347C9.91258 2.64862 10.3506 2.49908 10.7908 2.49908C11.6456 2.49908 12.5291 3.05908 13.2132 4.0359L15.4203 7.18802C16.2614 8.38862 16.6379 10.0368 15.1764 11.0603L11.863 13.3798L12.2311 14.1456C13.0732 15.8945 14.0426 17.5448 15.1944 19.1877C16.3335 20.8147 17.585 22.3324 18.9203 23.6995L19.5132 24.3073L22.8255 21.9867C24.0642 21.1201 25.5098 21.5985 26.5482 23.0801L28.7542 26.2323C29.2697 26.9694 29.5327 27.7532 29.4914 28.4373C29.4521 29.115 29.1202 29.675 28.5071 30.1045Z" fill="white"/>
</svg>
