<svg width="20" height="20" viewBox="0 0 20 20" fill="none" xmlns="http://www.w3.org/2000/svg">
<path fill-rule="evenodd" clip-rule="evenodd" d="M18.0817 13.1941C18.0817 14.883 16.7079 16.2547 15.0211 16.2547H4.97984C3.29309 16.2547 1.91922 14.883 1.91922 13.1941V6.805C1.91922 6.24133 2.07355 5.71191 2.34145 5.25754L7.24098 10.1571C7.97399 10.8922 8.95559 11.2973 10.0015 11.2973C11.0453 11.2973 12.0269 10.8922 12.7599 10.1571L17.6595 5.25754C17.9274 5.71191 18.0817 6.24129 18.0817 6.805V13.1941H18.0817ZM15.0211 3.74441H4.97984C4.28328 3.74441 3.64027 3.98016 3.1259 4.37238L8.07473 9.32336C8.58699 9.83344 9.27067 10.1164 10.0015 10.1164C10.7302 10.1164 11.4139 9.83344 11.9262 9.32336L16.875 4.37238C16.3607 3.98016 15.7177 3.74441 15.0211 3.74441ZM15.0211 2.56348H4.97984C2.64152 2.56348 0.738281 4.46672 0.738281 6.80504V13.1942C0.738281 15.5346 2.64152 17.4357 4.97984 17.4357H15.0211C17.3594 17.4357 19.2627 15.5346 19.2627 13.1942V6.805C19.2627 4.46668 17.3594 2.56348 15.0211 2.56348Z" fill="#E3572B"/>
</svg>
