<svg width="35" height="35" viewBox="0 0 35 35" fill="none" xmlns="http://www.w3.org/2000/svg">
<path d="M27.966 4.33577C25.1701 1.5398 21.4526 0 17.4986 0C13.5445 0 9.82699 1.5398 7.03108 4.33577C4.23511 7.13181 2.69531 10.8492 2.69531 14.8032C2.69531 22.8021 10.2585 29.4552 14.3217 33.0294C14.8863 33.5261 15.374 33.9551 15.7624 34.3179C16.2492 34.7726 16.8739 34.9999 17.4985 34.9999C18.1232 34.9999 18.7478 34.7726 19.2346 34.3179C19.6231 33.955 20.1107 33.5261 20.6754 33.0294C24.7386 29.4551 32.3017 22.8021 32.3017 14.8032C32.3017 10.8492 30.7619 7.13181 27.966 4.33577ZM19.3212 31.4901C18.7441 31.9977 18.2459 32.436 17.835 32.8197C17.6463 32.9959 17.3507 32.996 17.1619 32.8197C16.7511 32.4359 16.2528 31.9976 15.6758 31.49C11.8558 28.1298 4.74541 21.875 4.74541 14.8033C4.74541 7.77125 10.4664 2.05031 17.4984 2.05031C24.5304 2.05031 30.2514 7.77125 30.2514 14.8033C30.2514 21.875 23.1411 28.1298 19.3212 31.4901Z" fill="white"/>
<path d="M17.5002 7.72266C13.903 7.72266 10.9766 10.6491 10.9766 14.2462C10.9766 17.8433 13.903 20.7698 17.5002 20.7698C21.0973 20.7698 24.0237 17.8433 24.0237 14.2462C24.0237 10.6491 21.0973 7.72266 17.5002 7.72266ZM17.5002 18.7194C15.0336 18.7194 13.0268 16.7127 13.0268 14.2461C13.0268 11.7796 15.0336 9.77283 17.5002 9.77283C19.9668 9.77283 21.9735 11.7796 21.9735 14.2461C21.9735 16.7127 19.9668 18.7194 17.5002 18.7194Z" fill="white"/>
</svg>
