<svg width="24" height="24" viewBox="0 0 24 24" fill="none" xmlns="http://www.w3.org/2000/svg">
<path fill-rule="evenodd" clip-rule="evenodd" d="M21.6949 15.833C21.6949 17.8597 20.0463 19.5057 18.0222 19.5057H5.97269C3.94858 19.5057 2.29994 17.8596 2.29994 15.833V8.166C2.29994 7.48959 2.48514 6.8543 2.80661 6.30905L8.68605 12.1885C9.56566 13.0707 10.7436 13.5568 11.9987 13.5568C13.2513 13.5568 14.4292 13.0707 15.3088 12.1885L21.1882 6.30905C21.5097 6.8543 21.6949 7.48955 21.6949 8.166V15.833H21.6949ZM18.0222 4.4933H5.97269C5.13681 4.4933 4.3652 4.77619 3.74795 5.24686L9.68655 11.188C10.3013 11.8001 11.1217 12.1396 11.9987 12.1396C12.8732 12.1396 13.6936 11.8001 14.3083 11.188L20.2469 5.24686C19.6297 4.77619 18.8581 4.4933 18.0222 4.4933ZM18.0222 3.07617H5.97269C3.1667 3.07617 0.882812 5.36006 0.882812 8.16605V15.833C0.882812 18.6416 3.1667 20.9229 5.97269 20.9229H18.0222C20.8282 20.9229 23.1121 18.6416 23.1121 15.833V8.166C23.1121 5.36002 20.8282 3.07617 18.0222 3.07617Z" fill="white"/>
</svg>
