<svg width="50" height="50" viewBox="0 0 50 50" fill="none" xmlns="http://www.w3.org/2000/svg">
<g clip-path="url(#clip0_178_4578)">
<path d="M48.3643 24.491C49.4495 22.2025 49.9993 19.748 49.9993 17.1871C49.9993 7.76398 42.2892 0.0976562 32.8122 0.0976562C23.8629 0.0976562 16.4992 7.01263 15.781 15.7798C6.95956 16.4937 0.000443333 23.8595 0.000443333 32.8117C0.000443333 35.3726 0.550235 37.8271 1.63537 40.1157L0.0288606 48.1491C-0.151994 49.0532 0.539981 49.9011 1.46525 49.9011C1.67609 49.9011 0.968292 50.0276 9.88195 48.2654C12.1709 49.3511 14.626 49.9011 17.1875 49.9011C26.1364 49.9011 33.4999 42.9868 34.2186 34.2201C36.2738 34.0551 38.2511 33.5262 40.1178 32.6407L48.2504 34.2486C49.2735 34.451 50.1753 33.5468 49.9708 32.5244L48.3643 24.491ZM17.1875 46.9716C14.9199 46.9716 12.7544 46.4522 10.751 45.428C10.4579 45.2782 10.1229 45.2315 9.80012 45.2953L3.33152 46.5743L4.6058 40.2024C4.67055 39.8787 4.62406 39.5423 4.47358 39.2483C3.44948 37.2448 2.93006 35.0794 2.93006 32.8117C2.93006 25.4715 8.58305 19.4185 15.7923 18.7198C16.1141 22.3236 17.5592 25.6087 19.7744 28.222H11.7189C10.91 28.222 10.2541 28.8778 10.2541 29.6868C10.2541 30.4958 10.91 31.1516 11.7189 31.1516H22.9723C25.3631 32.8413 28.2051 33.9323 31.2786 34.207C30.5756 41.3622 24.5246 46.9716 17.1875 46.9716ZM45.394 24.5777L46.6683 30.9497L40.1997 29.6707C39.8769 29.607 39.5419 29.6536 39.2488 29.8034C37.2454 30.8275 35.0799 31.3469 32.8123 31.3469C25.0045 31.3469 18.6524 24.9948 18.6524 17.1871C18.6524 9.37937 25.0045 3.02728 32.8123 3.02728C40.6739 3.02728 47.0697 9.37937 47.0697 17.1871C47.0697 19.4547 46.5504 21.6202 45.5262 23.6237C45.3758 23.9177 45.3293 24.2539 45.394 24.5777Z" fill="#063232"/>
<path d="M32.8949 8.69224C30.3258 8.64399 28.2227 10.7062 28.2227 13.2699C28.2227 14.0788 28.8785 14.7347 29.6875 14.7347C30.4964 14.7347 31.1523 14.0788 31.1523 13.2699C31.1523 12.3315 31.9235 11.6016 32.8359 11.6213C33.6952 11.6386 34.4032 12.3233 34.4477 13.1801C34.4969 14.1306 33.7421 14.9212 32.8075 14.9239C32.0002 14.9264 31.3471 15.5814 31.3471 16.3887V19.5313C31.3471 20.3403 32.0029 20.9961 32.8119 20.9961C33.6209 20.9961 34.2767 20.3403 34.2767 19.5313V17.6068C36.1499 16.9648 37.4839 15.1565 37.3733 13.0282C37.2496 10.6449 35.2825 8.74028 32.8949 8.69224Z" fill="#063232"/>
<path d="M34.2491 23.9322C34.1684 23.5474 33.9557 23.2238 33.626 23.0006C32.8672 22.5019 31.9027 22.8002 31.5204 23.5289C31.1278 24.2793 31.4366 25.1432 32.122 25.5093C33.2013 26.0883 34.4793 25.1634 34.2491 23.9322Z" fill="#063232"/>
<path d="M22.656 34.4727H11.7187C10.9098 34.4727 10.2539 35.1285 10.2539 35.9375C10.2539 36.7464 10.9098 37.4023 11.7187 37.4023H22.656C23.4649 37.4023 24.1208 36.7464 24.1208 35.9375C24.1208 35.1285 23.465 34.4727 22.656 34.4727Z" fill="#063232"/>
</g>
<defs>
<clipPath id="clip0_178_4578">
<rect width="50" height="50" fill="white"/>
</clipPath>
</defs>
</svg>
