<svg width="30" height="30" viewBox="0 0 30 30" fill="none" xmlns="http://www.w3.org/2000/svg">
<path d="M17.3934 8.59963L18.4277 7.17838C16.7681 5.97047 14.8028 5.33203 12.7441 5.33203C10.6855 5.33203 8.72016 5.97047 7.06055 7.17838L8.0949 8.59963C9.45199 7.61191 11.0597 7.08984 12.7441 7.08984C14.4286 7.08984 16.0363 7.61191 17.3934 8.59963Z" fill="white"/>
<path d="M4.99414 4.33395L6.0285 5.7552C7.98904 4.32838 10.3113 3.57422 12.7444 3.57422C15.1774 3.57422 17.4997 4.32838 19.4602 5.7552L20.4946 4.33395C18.2316 2.68693 15.5516 1.81641 12.7444 1.81641C9.93717 1.81641 7.25721 2.68693 4.99414 4.33395Z" fill="white"/>
<path d="M8.0949 21.4004L7.06055 22.8216C8.72016 24.0296 10.6856 24.668 12.7441 24.668C14.8027 24.668 16.7681 24.0296 18.4277 22.8216L17.3934 21.4004C16.0363 22.3881 14.4286 22.9102 12.7441 22.9102C11.0597 22.9102 9.45199 22.3881 8.0949 21.4004Z" fill="white"/>
<path d="M12.7443 26.4258C10.3113 26.4258 7.98898 25.6717 6.0285 24.2449L4.99414 25.6661C7.25715 27.3131 9.93711 28.1837 12.7443 28.1837C15.5516 28.1837 18.2315 27.3131 20.4946 25.6661L19.4602 24.2449C17.4997 25.6717 15.1774 26.4258 12.7443 26.4258Z" fill="white"/>
<path d="M20.9219 7.93945V11.974H23.4435V22.0605H27.4781V11.974H29.9997V7.93945H20.9219Z" fill="white"/>
<path d="M0 7.93945H4.03459V22.0605H0V7.93945Z" fill="white"/>
<path d="M12.7433 21.0518C16.0857 21.0518 18.7952 18.3423 18.7952 14.9999C18.7952 11.6575 16.0857 8.948 12.7433 8.948C9.40096 8.948 6.69141 11.6575 6.69141 14.9999C6.69141 18.3423 9.40096 21.0518 12.7433 21.0518ZM12.7433 12.9826C13.8574 12.9826 14.7606 13.8858 14.7606 14.9999C14.7606 16.1141 13.8575 17.0172 12.7433 17.0172C11.6292 17.0172 10.726 16.1141 10.726 14.9999C10.726 13.8858 11.6292 12.9826 12.7433 12.9826Z" fill="white"/>
</svg>
