<svg width="24" height="24" viewBox="0 0 24 24" fill="none" xmlns="http://www.w3.org/2000/svg">
<path fill-rule="evenodd" clip-rule="evenodd" d="M21.6969 15.833C21.6969 17.8597 20.0483 19.5057 18.0242 19.5057H5.97464C3.95053 19.5057 2.30189 17.8596 2.30189 15.833V8.166C2.30189 7.48959 2.48709 6.8543 2.80856 6.30905L8.688 12.1885C9.56761 13.0707 10.7455 13.5568 12.0007 13.5568C13.2532 13.5568 14.4311 13.0707 15.3107 12.1885L21.1902 6.30905C21.5117 6.8543 21.6968 7.48955 21.6968 8.166V15.833H21.6969ZM18.0241 4.4933H5.97464C5.13877 4.4933 4.36716 4.77619 3.74991 5.24686L9.6885 11.188C10.3032 11.8001 11.1236 12.1396 12.0007 12.1396C12.8751 12.1396 13.6956 11.8001 14.3102 11.188L20.2488 5.24686C19.6316 4.77619 18.8601 4.4933 18.0241 4.4933ZM18.0241 3.07617H5.97464C3.16866 3.07617 0.884766 5.36006 0.884766 8.16605V15.833C0.884766 18.6416 3.16866 20.9229 5.97464 20.9229H18.0241C20.8301 20.9229 23.114 18.6416 23.114 15.833V8.166C23.114 5.36002 20.8301 3.07617 18.0241 3.07617Z" fill="#063232"/>
</svg>
