<svg width="24" height="24" viewBox="0 0 24 24" fill="none" xmlns="http://www.w3.org/2000/svg">
<g clip-path="url(#clip0_178_3604)">
<path d="M19.3249 15.042C18.183 13.4107 16.3147 12.9402 14.863 13.9547L13.5518 14.8754C12.8347 14.1009 12.1729 13.2776 11.5394 12.3736C10.9074 11.4718 10.3605 10.5685 9.87759 9.62744L11.1903 8.7089C12.6514 7.6849 12.8587 5.80781 11.6943 4.14599L10.1816 1.98235C9.03832 0.351808 7.16777 -0.117283 5.72196 0.897262L3.73286 2.28999C2.51977 3.13944 2.11177 5.13726 2.61505 7.77072C3.11541 10.3889 4.43396 13.3191 6.32705 16.0231C9.46596 20.5053 13.7169 23.6362 16.6674 23.6362C17.3278 23.6362 17.8921 23.4747 18.3438 23.1584L20.3321 21.7656C21.0921 21.2354 21.538 20.4587 21.5896 19.5809C21.6361 18.7933 21.3765 17.9714 20.8383 17.2027L19.3249 15.042ZM19.5467 20.6434L17.5583 22.0354C17.3409 22.1889 17.0412 22.266 16.6674 22.266C14.5852 22.266 10.6449 19.8027 7.44923 15.2376C5.6645 12.6885 4.42523 9.94526 3.9605 7.51326C3.57505 5.49508 3.78886 3.92272 4.51832 3.41144L6.50741 2.01872C6.79614 1.81653 7.0965 1.71399 7.39832 1.71399C7.9845 1.71399 8.59032 2.09799 9.05941 2.76781L10.5729 4.92926C11.1496 5.75253 11.4078 6.88272 10.4056 7.58453L8.13359 9.17508L8.38596 9.70017C8.96341 10.8994 9.62814 12.0311 10.418 13.1576C11.199 14.2733 12.0572 15.314 12.9729 16.2514L13.3794 16.6682L15.6507 15.0769C16.5001 14.4827 17.4914 14.8107 18.2034 15.8267L19.7161 17.9882C20.0696 18.4936 20.25 19.0311 20.2216 19.5002C20.1947 19.9649 19.967 20.3489 19.5467 20.6434Z" fill="#063232"/>
</g>
<defs>
<clipPath id="clip0_178_3604">
<rect width="24" height="24" fill="white"/>
</clipPath>
</defs>
</svg>
