<svg width="24" height="24" viewBox="0 0 24 24" fill="none" xmlns="http://www.w3.org/2000/svg">
<g clip-path="url(#clip0_138_919)">
<path fill-rule="evenodd" clip-rule="evenodd" d="M12.0004 0.141357C17.299 0.141357 21.6004 4.44272 21.6004 9.74136C21.6004 12.5005 20.2236 15.3404 18.4951 17.7252C16.0815 21.0558 13.0632 23.484 13.0632 23.484V23.4846C12.4425 23.9838 11.5582 23.9838 10.9376 23.4846V23.484C10.9376 23.484 7.91926 21.0558 5.5057 17.7252C3.77714 15.3404 2.40039 12.5005 2.40039 9.74136C2.40039 4.44272 6.70176 0.141357 12.0004 0.141357ZM12.0004 5.78842C14.1818 5.78842 15.9533 7.5599 15.9533 9.74136C15.9533 11.9228 14.1818 13.6943 12.0004 13.6943C9.81893 13.6943 8.04745 11.9228 8.04745 9.74136C8.04745 7.5599 9.81893 5.78842 12.0004 5.78842Z" fill="#00190F"/>
</g>
<defs>
<clipPath id="clip0_138_919">
<rect width="24" height="24" fill="white"/>
</clipPath>
</defs>
</svg>
