<svg width="40" height="40" viewBox="0 0 40 40" fill="none" xmlns="http://www.w3.org/2000/svg">
<g clip-path="url(#clip0_89_16)">
<path d="M20 2.34375C24.0738 2.34539 28.0218 3.75536 31.1751 6.33475C34.3283 8.91415 36.4929 12.5043 37.302 16.497C38.1111 20.4897 37.515 24.6393 35.6147 28.2428C33.7144 31.8463 30.6268 34.682 26.875 36.2695C22.5601 38.0929 17.6975 38.1275 13.3571 36.3657C9.01662 34.6038 5.55383 31.1899 3.73047 26.875C1.90711 22.5601 1.87253 17.6975 3.63435 13.3571C5.39616 9.01662 8.81005 5.55383 13.125 3.73047C15.2999 2.81008 17.6383 2.33841 20 2.34375ZM20 0C8.95469 0 0 8.95469 0 20C0 31.0453 8.95469 40 20 40C31.0453 40 40 31.0453 40 20C40 8.95469 31.0453 0 20 0Z" fill="#C2DF93"/>
<path d="M25.8354 30.7703C24.6736 30.6922 23.0361 30.2914 21.4377 29.7195C15.8018 27.7024 10.3026 22.3281 9.1338 14.811C8.92599 13.4727 9.14474 12.25 10.1588 11.2547C10.4986 10.9219 10.801 10.5516 11.133 10.211C12.383 8.92423 14.2096 8.89142 15.5041 10.1274C15.9143 10.518 16.3315 10.9031 16.7315 11.3063C17.2792 11.8464 17.5963 12.5778 17.6163 13.3468C17.6362 14.1158 17.3575 14.8626 16.8385 15.4305C16.526 15.7774 16.1979 16.107 15.8682 16.436C15.508 16.7953 15.0604 17.0016 14.5799 17.1516C13.9869 17.3375 13.8768 17.586 14.1463 18.1524C15.8494 21.7195 18.5153 24.288 22.144 25.8578C22.6291 26.0672 22.8533 25.9727 23.0486 25.4914C23.4768 24.436 24.2619 23.6664 25.1643 23.0445C26.1854 22.3414 27.6479 22.4977 28.615 23.3289C29.1453 23.7846 29.6519 24.267 30.133 24.7742C30.6506 25.328 30.9383 26.058 30.9375 26.816C30.9368 27.5741 30.6478 28.3035 30.1291 28.8563C29.9783 29.0203 29.8229 29.1805 29.6783 29.3492C28.808 30.361 27.7041 30.8344 25.8354 30.7703Z" fill="#C2DF93"/>
</g>
<defs>
<clipPath id="clip0_89_16">
<rect width="40" height="40" fill="white"/>
</clipPath>
</defs>
</svg>
