<svg width="18" height="18" viewBox="0 0 18 18" fill="none" xmlns="http://www.w3.org/2000/svg">
<g clip-path="url(#clip0_144_1815)">
<path d="M0.00605042 8.9916C0.00605042 7.36134 -0.0107563 5.73109 0.0116527 4.09524C0.0284594 2.59944 0.667115 1.42857 1.93322 0.616247C2.56627 0.207283 3.27216 0.0112045 4.02286 0.00560224C7.33938 0 10.6615 -0.00560224 13.978 0.0112045C15.9948 0.022409 17.6587 1.4958 17.95 3.4902C17.978 3.69748 17.9948 3.91036 17.9948 4.11765C17.9948 7.37255 18.0004 10.6275 17.9948 13.888C17.9948 15.8543 16.6951 17.4846 14.8128 17.8992C14.5103 17.9664 14.2021 18 13.894 18C10.6335 18 7.3674 18.0056 4.10689 18C2.15171 17.9944 0.521457 16.7003 0.106891 14.8291C0.0396639 14.5154 0.00605042 14.1961 0.00605042 13.8711C0.00605042 12.2409 0.00605042 10.6162 0.00605042 8.9916ZM9.00325 14.7843C12.1797 14.7843 14.7848 12.1849 14.7904 9.01401C14.7904 5.82633 12.1909 3.21569 9.00885 3.21569C5.82118 3.21569 3.21613 5.81513 3.21613 8.9972C3.21613 12.1849 5.81557 14.7843 9.00325 14.7843ZM14.936 1.82633C14.275 1.82633 13.7203 2.36415 13.7203 3.01961C13.7203 3.67507 14.2694 4.22409 14.9248 4.22969C15.5915 4.22969 16.1293 3.69188 16.1293 3.03081C16.1349 2.35854 15.6083 1.82633 14.936 1.82633Z" fill="#00190F"/>
<path d="M8.99114 12.3243C7.15921 12.2794 5.68582 10.8789 5.69142 8.99093C5.69702 7.09737 7.17602 5.69681 9.01355 5.68561C10.8343 5.6744 12.3357 7.20382 12.3245 9.00774C12.3133 10.8229 10.8007 12.3299 8.99114 12.3243Z" fill="#00190F"/>
</g>
<defs>
<clipPath id="clip0_144_1815">
<rect width="18" height="18" fill="white"/>
</clipPath>
</defs>
</svg>
