<svg width="18" height="18" viewBox="0 0 18 18" fill="none" xmlns="http://www.w3.org/2000/svg">
<g clip-path="url(#clip0_144_1824)">
<path d="M9.97418 7.51276C10.4652 6.78785 11.0966 6.25586 11.9092 5.9694C13.2772 5.49002 14.6335 5.56018 15.9313 6.18571C17.0304 6.71185 17.5156 7.71153 17.7787 8.84566C17.9307 9.5238 18.0008 10.2136 18.0008 10.9093C18.0067 13.1717 18.0008 15.44 18.0125 17.7024C18.0125 17.9246 17.9482 17.9947 17.726 17.9947C16.6621 17.983 15.5922 17.9889 14.5283 17.9889C14.2418 17.9889 14.2243 17.9713 14.2243 17.6732C14.2184 15.5335 14.2184 13.3939 14.2126 11.2484C14.2126 10.8918 14.1424 10.5352 14.043 10.1903C13.7624 9.2315 13.0434 8.9392 12.1548 8.97427C12.0144 8.98012 11.88 9.0035 11.7455 9.03273C10.9154 9.21396 10.4243 9.75764 10.2489 10.6638C10.1437 11.2133 10.132 11.7687 10.1262 12.3241C10.1145 14.113 10.1203 15.9018 10.1203 17.6966C10.1203 18.0006 10.1203 18.0006 9.81633 18.0006C8.76404 18.0006 7.71175 18.0006 6.65946 18.0006C6.36132 18.0006 6.36132 18.0006 6.36132 17.7141C6.36132 13.8908 6.36131 10.0733 6.35547 6.25001C6.35547 6.03371 6.41393 5.95771 6.63608 5.95771C7.65914 5.9694 8.6822 5.9694 9.70526 5.95771C9.92156 5.95771 9.98587 6.03371 9.98002 6.23832C9.96833 6.66508 9.97418 7.09184 9.97418 7.51276Z" fill="#00190F"/>
<path d="M0.279942 11.9843C0.279942 10.1019 0.279942 8.21362 0.279942 6.33119C0.279942 5.96874 0.279942 5.96874 0.642397 5.96874C1.68884 5.96874 2.72944 5.97458 3.77588 5.96289C3.99803 5.96289 4.06234 6.0272 4.06234 6.24935C4.05649 10.0727 4.05649 13.8901 4.05649 17.7135C4.05649 18.0058 4.05649 18.0058 3.76419 18.0058C2.70021 18.0058 1.63038 18.0058 0.566399 18.0058C0.285788 18.0058 0.279942 17.9999 0.279942 17.7076C0.274096 15.796 0.279942 13.8901 0.279942 11.9843Z" fill="#00190F"/>
<path d="M2.18642 4.367C0.976291 4.37285 0 3.39656 0 2.18642C0 0.982137 0.964599 0 2.16304 0C3.36148 0 4.34946 0.970445 4.36116 2.16304C4.367 3.36148 3.37902 4.367 2.18642 4.367Z" fill="#00190F"/>
</g>
<defs>
<clipPath id="clip0_144_1824">
<rect width="18.0058" height="18" fill="white"/>
</clipPath>
</defs>
</svg>
