<svg width="60" height="60" viewBox="0 0 60 60" fill="none" xmlns="http://www.w3.org/2000/svg">
<path d="M27.002 0H33.002L30.002 30.0001L27.002 0Z" fill="#C2DF93"/>
<path d="M27.002 60H33.002L30.002 29.9999L27.002 60Z" fill="#C2DF93"/>
<path d="M42.4043 2.51831L47.6005 5.51832L30.0022 29.9992L42.4043 2.51831Z" fill="#C2DF93"/>
<path d="M12.4004 54.4805L17.5966 57.4805L29.9987 29.9996L12.4004 54.4805Z" fill="#C2DF93"/>
<path d="M54.4785 12.4009L57.4786 17.597L29.9974 29.999L54.4785 12.4009Z" fill="#C2DF93"/>
<path d="M2.51953 42.4009L5.51957 47.597L30.0006 29.9989L2.51953 42.4009Z" fill="#C2DF93"/>
<path d="M59.998 27V33L29.9977 30L59.998 27Z" fill="#C2DF93"/>
<path d="M0 27L0 33L30.0004 30L0 27Z" fill="#C2DF93"/>
<path d="M57.0312 43.3535L53.8517 48.4418L29.9997 30L57.0312 43.3535Z" fill="#C2DF93"/>
<path d="M6.15039 11.5593L2.97084 16.6476L30.0024 30.0011L6.15039 11.5593Z" fill="#C2DF93"/>
<path d="M46.2969 55.3687L40.9508 58.0926L30.0039 30.0003L46.2969 55.3687Z" fill="#C2DF93"/>
<path d="M19.0508 1.90771L13.7047 4.63167L29.9976 30L19.0508 1.90771Z" fill="#C2DF93"/>
</svg>
