<svg width="20" height="20" viewBox="0 0 20 20" fill="none" xmlns="http://www.w3.org/2000/svg">
<path d="M16.3563 7.73125L5.625 1.53125C5.31825 1.34976 4.96891 1.25273 4.6125 1.25C4.05223 1.25 3.51491 1.47257 3.11874 1.86874C2.72257 2.26491 2.5 2.80223 2.5 3.3625V16.6687C2.50007 17.0405 2.59974 17.4055 2.78864 17.7258C2.97754 18.046 3.24878 18.3098 3.57415 18.4897C3.89952 18.6696 4.26714 18.7591 4.6388 18.7488C5.01046 18.7385 5.37257 18.6289 5.6875 18.4312L16.4313 11.6437C16.7653 11.4347 17.0395 11.1426 17.2271 10.7961C17.4148 10.4495 17.5094 10.0603 17.5019 9.66626C17.4943 9.27224 17.3848 8.8869 17.184 8.54779C16.9833 8.20868 16.6981 7.92736 16.3563 7.73125Z" fill="#062722"/>
</svg>
